<?xml version="1.0" standalone="no"?>
<!DOCTYPE svg PUBLIC "-//W3C//DTD SVG 20010904//EN"
 "http://www.w3.org/TR/2001/REC-SVG-20010904/DTD/svg10.dtd">
<svg version="1.0" xmlns="http://www.w3.org/2000/svg"
 width="128.000000pt" height="128.000000pt" viewBox="0 0 128.000000 128.000000"
 preserveAspectRatio="xMidYMid meet">

<g transform="translate(0.000000,128.000000) scale(0.100000,-0.100000)"
fill="#000000" stroke="none">
<path d="M421 1266 c-8 -9 -11 -65 -9 -177 l3 -164 68 -3 c64 -3 67 -4 67 -27
0 -15 -6 -25 -15 -25 -23 0 -47 -45 -43 -82 l3 -33 63 -3 c58 -3 62 -4 62 -27
0 -22 -5 -25 -35 -25 -24 0 -37 -6 -45 -20 -10 -18 -21 -20 -103 -20 -81 0
-94 2 -105 20 -11 17 -23 20 -97 20 -72 0 -86 -3 -97 -19 -11 -15 -28 -21 -74
-23 -44 -2 -59 -7 -59 -18 0 -11 15 -16 59 -18 46 -2 63 -8 74 -23 8 -11 25
-19 43 -19 24 0 29 -4 29 -25 0 -25 0 -25 -93 -25 -59 0 -97 -4 -105 -12 -8
-8 -12 -60 -12 -170 0 -181 -2 -178 94 -178 47 0 56 -3 56 -17 0 -10 -14 -26
-31 -35 -28 -16 -30 -21 -27 -65 l3 -48 140 0 140 0 3 29 c5 45 -7 76 -33 86
-15 6 -25 17 -25 30 0 18 6 20 59 20 90 0 91 3 91 184 0 105 -4 156 -12 164
-8 8 -46 12 -105 12 -93 0 -93 0 -93 25 0 21 5 25 30 25 19 0 34 7 42 20 11
18 24 20 105 20 82 0 93 -2 103 -20 9 -18 21 -20 100 -20 79 0 91 2 100 20 10
18 21 20 103 20 81 0 94 -2 105 -20 8 -13 23 -20 42 -20 25 0 30 -4 30 -25 0
-25 0 -25 -93 -25 -59 0 -97 -4 -105 -12 -8 -8 -12 -59 -12 -164 0 -181 1
-184 91 -184 53 0 59 -2 59 -20 0 -13 -10 -24 -25 -30 -26 -10 -38 -41 -33
-86 l3 -29 140 0 140 0 3 48 c3 44 1 49 -27 65 -17 9 -31 25 -31 35 0 14 9 17
56 17 96 0 94 -3 94 178 0 110 -4 162 -12 170 -8 8 -46 12 -105 12 -93 0 -93
0 -93 25 0 21 5 25 29 25 18 0 35 8 43 19 11 15 28 21 74 23 44 2 59 7 59 18
0 11 -15 16 -59 18 -46 2 -63 8 -74 23 -11 16 -25 19 -97 19 -74 0 -86 -3 -97
-20 -11 -18 -24 -20 -105 -20 -82 0 -93 2 -103 20 -8 14 -21 20 -45 20 -30 0
-35 3 -35 25 0 23 4 24 63 27 l62 3 3 33 c4 37 -20 82 -43 82 -9 0 -15 10 -15
25 0 23 3 24 68 27 l67 3 3 164 c2 112 -1 168 -9 177 -9 11 -55 14 -219 14
-164 0 -210 -3 -219 -14z m409 -166 l0 -140 -190 0 -190 0 0 140 0 140 190 0
190 0 0 -140z m-150 -205 c0 -22 -4 -25 -40 -25 -36 0 -40 3 -40 25 0 23 4 25
40 25 36 0 40 -2 40 -25z m60 -69 c0 -2 3 -11 6 -20 5 -14 -8 -16 -105 -16
-61 0 -111 2 -111 4 0 31 15 36 111 36 54 0 99 -2 99 -4z m-440 -186 c0 -18
-7 -20 -65 -20 -58 0 -65 2 -65 20 0 18 7 20 65 20 58 0 65 -2 65 -20z m400 0
c0 -18 -7 -20 -60 -20 -53 0 -60 2 -60 20 0 18 7 20 60 20 53 0 60 -2 60 -20z
m410 0 c0 -18 -7 -20 -65 -20 -58 0 -65 2 -65 20 0 18 7 20 65 20 58 0 65 -2
65 -20z m-682 -287 l-3 -138 -190 0 -190 0 -3 138 -3 137 196 0 196 0 -3 -137z
m810 0 l-3 -138 -190 0 -190 0 -3 138 -3 137 196 0 196 0 -3 -137z m-958 -203
c0 -17 -7 -20 -45 -20 -38 0 -45 3 -45 20 0 17 7 20 45 20 38 0 45 -3 45 -20z
m810 0 c0 -17 -7 -20 -45 -20 -38 0 -45 3 -45 20 0 17 7 20 45 20 38 0 45 -3
45 -20z m-766 -66 c9 -3 16 -15 16 -25 0 -17 -9 -19 -105 -19 -97 0 -105 1
-105 19 0 11 6 22 13 24 18 8 162 8 181 1z m810 0 c9 -3 16 -15 16 -25 0 -17
-9 -19 -105 -19 -97 0 -105 1 -105 19 0 11 6 22 13 24 18 8 162 8 181 1z"/>
<path d="M536 1031 c-3 -5 0 -14 8 -20 10 -8 16 -8 25 2 6 8 8 17 4 20 -9 10
-31 9 -37 -2z"/>
<path d="M622 1023 c2 -10 10 -18 18 -18 8 0 16 8 18 18 2 12 -3 17 -18 17
-15 0 -20 -5 -18 -17z"/>
<path d="M706 1031 c-3 -5 0 -14 8 -20 10 -8 16 -8 25 2 6 8 8 17 4 20 -9 10
-31 9 -37 -2z"/>
<path d="M137 294 c-14 -15 -6 -34 14 -34 14 0 19 5 17 17 -3 18 -20 27 -31
17z"/>
<path d="M221 286 c-12 -14 -5 -26 16 -26 15 0 18 26 4 34 -5 3 -14 0 -20 -8z"/>
<path d="M307 294 c-14 -15 -6 -34 14 -34 14 0 19 5 17 17 -3 18 -20 27 -31
17z"/>
<path d="M947 294 c-14 -15 -6 -34 14 -34 14 0 19 5 17 17 -3 18 -20 27 -31
17z"/>
<path d="M1026 285 c-6 -17 16 -31 33 -21 13 9 2 36 -14 36 -7 0 -16 -7 -19
-15z"/>
<path d="M1117 294 c-14 -15 -6 -34 14 -34 14 0 19 5 17 17 -3 18 -20 27 -31
17z"/>
</g>
</svg>
