<?xml version="1.0" standalone="no"?>
<!DOCTYPE svg PUBLIC "-//W3C//DTD SVG 20010904//EN"
 "http://www.w3.org/TR/2001/REC-SVG-20010904/DTD/svg10.dtd">
<svg version="1.0" xmlns="http://www.w3.org/2000/svg"
 width="128.000000pt" height="128.000000pt" viewBox="0 0 128.000000 128.000000"
 preserveAspectRatio="xMidYMid meet">

<g transform="translate(0.000000,128.000000) scale(0.100000,-0.100000)"
fill="#000000" stroke="none">
<path d="M347 1273 c-4 -3 -7 -24 -7 -45 l0 -38 -170 0 -170 0 0 -239 c0 -209
2 -240 16 -245 9 -3 56 -6 106 -6 l90 0 95 -86 c75 -68 97 -83 108 -74 12 10
10 22 -10 77 -14 36 -25 69 -25 74 0 4 28 9 63 11 l62 3 3 43 c3 37 6 42 27
42 19 0 31 -13 57 -62 18 -35 40 -63 48 -63 8 0 30 28 48 63 26 49 38 62 57
62 21 0 24 -5 27 -42 l3 -43 63 -3 c34 -2 62 -7 62 -11 0 -5 -11 -38 -25 -74
-20 -55 -22 -67 -10 -77 11 -9 33 6 110 74 l96 86 92 0 c51 0 98 4 105 8 9 7
12 60 10 233 l-3 224 -177 3 -177 2 -3 53 -3 52 -281 3 c-154 1 -283 -1 -287
-5z m523 -238 l0 -205 -90 0 -90 0 -22 -45 c-12 -25 -25 -45 -28 -45 -3 0 -16
20 -28 45 l-21 44 -103 3 -103 3 -3 190 c-1 104 0 195 2 202 4 10 60 13 246
13 l240 0 0 -205z m-528 -62 l3 -178 63 -3 c54 -3 62 -6 62 -22 0 -18 -7 -20
-70 -20 -82 0 -88 -6 -65 -69 17 -50 19 -51 -69 26 l-48 43 -89 0 -89 0 0 200
0 200 150 0 150 0 2 -177z m898 -33 l0 -190 -89 0 -88 0 -62 -55 c-34 -30 -64
-55 -66 -55 -2 0 3 19 11 42 22 62 16 68 -66 68 -63 0 -70 2 -70 19 0 17 8 20
53 23 l52 3 3 69 c3 66 4 68 22 51 15 -14 17 -26 13 -71 -7 -61 -1 -65 57 -35
34 18 35 18 78 -2 52 -26 63 -16 51 46 -7 38 -5 45 22 72 42 45 38 61 -16 70
-42 6 -48 10 -67 51 -12 24 -26 44 -30 44 -5 0 -17 -14 -26 -31 -28 -50 -35
-57 -69 -64 l-33 -7 0 71 0 71 160 0 160 0 0 -190z m-180 45 c7 -18 17 -25 35
-25 28 0 32 -12 10 -30 -8 -7 -15 -26 -15 -42 0 -25 -3 -29 -17 -23 -10 4 -22
7 -28 7 -5 0 -18 -3 -27 -7 -15 -6 -18 -2 -18 23 0 16 -7 35 -15 42 -22 18
-18 30 10 30 17 0 29 8 37 25 6 14 13 25 15 25 2 0 8 -11 13 -25z"/>
<path d="M430 1170 c0 -16 7 -20 34 -20 l34 0 32 -95 32 -96 101 3 101 3 23
80 c13 44 21 86 18 93 -3 8 -34 12 -105 12 -93 0 -100 -1 -100 -20 0 -18 7
-20 80 -20 44 0 80 -1 80 -3 0 -2 -7 -27 -15 -55 l-16 -52 -69 0 -68 0 -32 95
-32 95 -49 0 c-42 0 -49 -3 -49 -20z"/>
<path d="M567 933 c-4 -3 -7 -17 -7 -30 0 -18 5 -23 25 -23 14 0 28 7 31 15
11 27 -30 58 -49 38z"/>
<path d="M691 926 c-16 -20 -3 -46 24 -46 27 0 36 17 23 43 -10 20 -31 22 -47
3z"/>
<path d="M90 1000 c0 -18 7 -20 60 -20 53 0 60 2 60 20 0 18 -7 20 -60 20 -53
0 -60 -2 -60 -20z"/>
<path d="M260 1000 c0 -13 7 -20 20 -20 13 0 20 7 20 20 0 13 -7 20 -20 20
-13 0 -20 -7 -20 -20z"/>
<path d="M90 895 l0 -26 103 3 c97 3 102 4 105 26 3 22 2 22 -102 22 l-106 0
0 -25z"/>
<path d="M560 598 c-63 -33 -102 -86 -108 -148 -5 -60 16 -126 53 -160 15 -14
25 -35 25 -52 0 -27 -1 -28 -54 -28 -95 0 -159 -67 -154 -160 l3 -45 315 0
315 0 3 45 c5 93 -59 160 -154 160 -53 0 -54 1 -54 28 0 17 10 38 25 52 63 59
72 180 18 248 -36 45 -105 82 -153 82 -20 0 -56 -10 -80 -22z m122 -28 c21 0
98 -70 98 -89 0 -19 -60 -12 -101 11 l-39 22 -39 -22 c-40 -23 -101 -30 -101
-12 0 6 15 26 33 46 31 34 86 57 115 48 8 -2 23 -4 34 -4z m-9 -125 c20 -8 55
-15 78 -15 41 0 41 0 35 -31 -31 -157 -261 -157 -292 0 -6 31 -6 31 37 31 34
1 81 14 105 29 1 1 18 -6 37 -14z m27 -229 c0 -12 -13 -35 -30 -51 l-30 -29
-30 29 c-16 16 -30 39 -30 51 0 20 5 22 60 22 55 0 60 -2 60 -22z m-115 -86
c21 -22 46 -40 55 -40 9 0 34 18 55 40 35 36 44 40 86 40 84 0 121 -27 135
-98 l7 -32 -282 0 -281 0 0 23 c0 31 36 86 63 97 12 5 45 9 72 9 47 1 54 -2
90 -39z"/>
</g>
</svg>
