<?xml version="1.0" standalone="no"?>
<!DOCTYPE svg PUBLIC "-//W3C//DTD SVG 20010904//EN"
 "http://www.w3.org/TR/2001/REC-SVG-20010904/DTD/svg10.dtd">
<svg version="1.0" xmlns="http://www.w3.org/2000/svg"
 width="128.000000pt" height="128.000000pt" viewBox="0 0 128.000000 128.000000"
 preserveAspectRatio="xMidYMid meet">

<g transform="translate(0.000000,128.000000) scale(0.100000,-0.100000)"
fill="#000000" stroke="none">
<path d="M954 1251 c-61 -26 -85 -122 -44 -174 l20 -25 -33 -6 c-19 -3 -47
-20 -63 -37 -28 -29 -29 -33 -32 -150 l-4 -119 -29 0 c-22 0 -29 -5 -29 -20 0
-19 7 -20 260 -20 253 0 260 1 260 20 0 15 -7 20 -29 20 l-29 0 -4 119 c-3
117 -4 121 -32 150 -16 17 -44 34 -63 37 l-33 6 20 25 c31 39 27 105 -7 143
-30 34 -89 48 -129 31z m94 -51 c47 -44 15 -130 -48 -130 -38 0 -70 34 -70 75
0 41 32 75 70 75 14 0 36 -9 48 -20z m87 -215 c24 -23 25 -31 25 -135 0 -109
0 -110 -24 -110 l-24 0 14 67 c8 37 12 73 10 80 -8 19 -264 19 -272 0 -2 -7 2
-43 10 -80 l14 -67 -24 0 c-24 0 -24 1 -24 110 0 104 1 112 25 135 23 24 31
25 135 25 104 0 112 -1 135 -25z m-49 -182 l-12 -58 -68 -3 c-38 -2 -73 1 -77
5 -4 4 -11 32 -15 61 l-7 52 95 0 95 0 -11 -57z"/>
<path d="M984 809 c-10 -17 13 -36 27 -22 12 12 4 33 -11 33 -5 0 -12 -5 -16
-11z"/>
<path d="M516 1125 c-3 -9 4 -20 17 -27 18 -11 -9 -14 -173 -18 l-195 -5 -3
-217 c-2 -213 -2 -218 18 -218 19 0 20 6 20 200 l0 200 178 -1 c162 0 175 -1
155 -15 -22 -16 -21 -44 1 -44 16 1 106 68 106 80 0 12 -90 79 -106 80 -7 0
-14 -7 -18 -15z"/>
<path d="M1080 420 l0 -180 -136 0 c-131 0 -135 1 -115 18 15 12 18 21 12 32
-12 17 -35 6 -91 -41 l-35 -29 35 -29 c56 -47 79 -58 91 -41 6 11 3 20 -12 32
-20 17 -14 18 133 20 l153 3 3 198 c2 192 2 197 -18 197 -19 0 -20 -6 -20
-180z"/>
<path d="M72 548 c-9 -9 -12 -69 -12 -210 0 -180 -2 -203 -20 -239 -16 -30
-18 -44 -10 -59 10 -19 22 -20 310 -20 288 0 300 1 310 20 8 15 6 29 -10 59
-18 36 -20 59 -20 239 0 141 -3 201 -12 210 -17 17 -519 17 -536 0z m508 -208
l0 -180 -240 0 -240 0 0 180 0 180 240 0 240 0 0 -180z m25 -250 l16 -30 -281
0 -281 0 16 30 16 30 249 0 249 0 16 -30z"/>
<path d="M320 460 c0 -23 4 -30 20 -30 16 0 20 7 20 30 0 23 -4 30 -20 30 -16
0 -20 -7 -20 -30z"/>
<path d="M185 438 c10 -32 19 -40 38 -32 13 5 14 10 5 30 -15 32 -52 34 -43 2z"/>
<path d="M452 436 c-9 -20 -8 -25 6 -31 17 -6 42 18 42 42 0 23 -36 14 -48
-11z"/>
<path d="M280 381 c-44 -14 -105 -48 -124 -70 -19 -21 -19 -21 0 -42 10 -12
42 -33 69 -47 93 -49 232 -27 299 47 19 21 19 21 0 42 -48 54 -180 91 -244 70z
m-15 -91 c0 -22 -1 -40 -3 -40 -12 0 -62 32 -62 40 0 8 46 38 60 40 3 0 5 -18
5 -40z m105 25 c15 -18 10 -45 -12 -59 -35 -22 -74 27 -48 59 16 19 44 19 60
0z m80 0 c17 -9 30 -20 30 -25 0 -8 -50 -40 -62 -40 -2 0 -3 18 -3 40 0 22 1
40 3 40 2 0 16 -7 32 -15z"/>
</g>
</svg>
