<?xml version="1.0" standalone="no"?>
<!DOCTYPE svg PUBLIC "-//W3C//DTD SVG 20010904//EN"
 "http://www.w3.org/TR/2001/REC-SVG-20010904/DTD/svg10.dtd">
<svg version="1.0" xmlns="http://www.w3.org/2000/svg"
 width="128.000000pt" height="128.000000pt" viewBox="0 0 128.000000 128.000000"
 preserveAspectRatio="xMidYMid meet">

<g transform="translate(0.000000,128.000000) scale(0.100000,-0.100000)"
fill="#000000" stroke="none">
<path d="M1011 1235 l-48 -45 -442 0 -441 0 -38 -34 -37 -34 0 -481 0 -480 30
-31 c16 -17 40 -33 52 -36 17 -5 23 -13 23 -35 0 -47 29 -59 151 -59 116 0
130 6 144 63 l7 27 209 0 c197 0 209 -1 209 -19 0 -10 9 -30 21 -45 20 -25 24
-26 130 -26 96 0 111 2 129 20 11 11 20 31 20 45 0 15 6 25 14 25 8 0 22 7 30
16 14 14 16 67 16 436 l0 421 45 48 c25 26 45 58 45 69 0 54 -71 145 -141 180
-56 29 -74 25 -128 -25z m166 -57 c23 -23 47 -55 53 -71 9 -28 6 -33 -72 -113
-61 -63 -88 -84 -108 -84 -39 0 -62 -22 -64 -60 -1 -18 -7 -35 -14 -38 -7 -2
-46 27 -88 64 -86 77 -95 107 -35 110 39 2 61 25 61 64 0 20 21 47 84 108 80
79 85 82 112 72 16 -6 48 -30 71 -52z m-272 -48 c-17 -19 -33 -20 -358 -22
l-341 -3 -20 -40 c-14 -26 -34 -47 -58 -58 l-38 -19 0 -349 0 -349 28 -11 c37
-14 72 -48 72 -70 0 -37 29 -39 417 -37 l378 3 20 40 c13 25 35 47 60 60 l40
20 3 296 c2 281 3 297 22 314 20 18 20 16 20 -378 l0 -397 -529 0 -529 0 -26
31 -26 31 0 448 0 448 26 31 26 31 415 0 c415 0 416 0 398 -20z m-395 -285 c0
-207 -2 -227 -20 -257 -25 -42 -25 -60 0 -83 18 -16 20 -31 20 -157 l0 -138
-140 0 c-114 0 -140 3 -140 14 0 21 -49 76 -77 87 l-23 9 0 320 0 320 23 9
c28 11 77 66 77 87 0 11 26 14 140 14 l140 0 0 -225z m360 205 c0 -15 -7 -20
-26 -20 -65 0 -97 -52 -65 -105 l19 -33 -107 -106 c-60 -58 -115 -106 -125
-106 -14 0 -16 20 -16 188 0 104 3 192 7 195 3 4 75 7 160 7 146 0 153 -1 153
-20z m200 -452 l0 -273 -38 -20 c-21 -11 -46 -36 -57 -58 l-20 -37 -200 2
-200 3 -3 28 c-4 32 21 46 49 29 26 -17 311 -16 327 0 8 8 12 57 12 154 0 116
-3 145 -16 158 -12 13 -38 16 -122 16 l-107 0 99 99 98 99 33 -19 c53 -32 105
1 105 65 0 19 5 26 20 26 20 0 20 -7 20 -272z m-219 246 c11 -13 -2 -30 -93
-122 -58 -59 -113 -121 -121 -138 -19 -37 -91 -74 -109 -56 -19 19 20 90 61
112 20 10 81 64 136 119 55 56 103 101 106 101 4 0 12 -7 20 -16z m49 -419 l0
-125 -130 0 -130 0 0 107 c0 144 -1 143 147 143 l113 0 0 -125z m-300 45 c0
-15 -7 -20 -25 -20 -29 0 -33 15 -7 29 25 15 32 13 32 -9z m-2 -108 c3 -39 1
-42 -22 -42 -23 0 -26 4 -26 38 0 43 7 54 30 50 10 -2 16 -17 18 -46z m-240
-294 c-3 -22 -7 -23 -103 -23 -96 0 -100 1 -103 23 -3 22 -2 22 103 22 105 0
106 0 103 -22z m727 -3 c0 -18 -8 -20 -96 -23 -75 -2 -99 1 -108 12 -25 29 -2
37 102 34 94 -3 102 -4 102 -23z"/>
<path d="M1015 1109 c-52 -49 -71 -89 -42 -89 16 0 117 101 117 117 0 29 -24
20 -75 -28z"/>
<path d="M1077 1042 c-31 -32 -57 -63 -57 -70 0 -28 41 -8 89 43 44 46 51 58
41 70 -7 8 -13 15 -14 15 -1 0 -27 -26 -59 -58z"/>
<path d="M282 1003 c3 -15 16 -19 67 -21 44 -2 67 1 72 10 14 22 -1 28 -72 28
-62 0 -70 -2 -67 -17z"/>
<path d="M192 917 c-29 -31 -30 -99 -2 -127 17 -17 33 -20 120 -20 87 0 103 3
120 20 29 29 27 94 -5 125 -22 23 -32 25 -118 25 -85 0 -96 -2 -115 -23z m211
-38 c5 -9 7 -28 3 -42 -6 -27 -7 -27 -95 -27 -93 0 -101 4 -101 49 0 34 22 42
104 39 59 -2 81 -7 89 -19z"/>
<path d="M213 720 c-45 -19 -59 -99 -24 -141 18 -22 26 -24 121 -24 95 0 103
2 121 24 25 30 25 92 0 122 -17 22 -28 24 -108 26 -48 2 -98 -1 -110 -7z m192
-60 c3 -11 3 -29 0 -40 -6 -19 -14 -21 -98 -18 -88 3 -92 4 -95 26 -7 48 1 52
97 52 81 0 90 -2 96 -20z"/>
<path d="M190 490 c-29 -29 -28 -99 3 -128 20 -19 35 -22 116 -22 84 0 94 2
116 25 32 31 34 96 5 125 -17 17 -33 20 -120 20 -87 0 -103 -3 -120 -20z m216
-47 c12 -48 -4 -58 -96 -58 -92 0 -108 10 -96 58 6 27 7 27 96 27 89 0 90 0
96 -27z"/>
<path d="M287 293 c-4 -3 -7 -12 -7 -20 0 -9 18 -13 68 -13 73 0 84 4 75 26
-4 10 -23 14 -67 14 -35 0 -66 -3 -69 -7z"/>
<path d="M602 1003 c2 -10 10 -18 18 -18 8 0 16 8 18 18 2 12 -3 17 -18 17
-15 0 -20 -5 -18 -17z"/>
<path d="M684 1009 c-3 -6 -2 -15 4 -21 13 -13 32 -2 32 18 0 16 -26 19 -36 3z"/>
<path d="M607 934 c-4 -4 -7 -43 -7 -86 0 -70 2 -79 18 -76 14 3 17 15 17 82
0 73 -9 99 -28 80z"/>
<path d="M685 930 c-8 -14 3 -30 21 -30 8 0 14 9 14 20 0 21 -24 28 -35 10z"/>
<path d="M984 587 c-10 -27 0 -72 16 -72 11 0 15 11 15 39 0 40 -20 61 -31 33z"/>
<path d="M987 464 c-14 -14 -7 -72 8 -78 19 -7 28 12 23 50 -3 27 -18 41 -31
28z"/>
<path d="M685 500 c-8 -14 3 -30 21 -30 8 0 14 9 14 20 0 21 -24 28 -35 10z"/>
<path d="M684 369 c-13 -21 14 -30 87 -27 61 2 74 6 77 21 3 15 -6 17 -77 17
-47 0 -83 -5 -87 -11z"/>
</g>
</svg>
